<?xml version="1.0" encoding="UTF-8" standalone="no"?>
<!DOCTYPE svg PUBLIC "-//W3C//DTD SVG 1.1//EN"
 "http://www.w3.org/Graphics/SVG/1.1/DTD/svg11.dtd">
<!-- Generated by graphviz version 2.43.0 (0)
 -->
<!-- Title: T Pages: 1 -->
<svg width="558pt" height="638pt"
 viewBox="0.00 0.00 558.00 638.00" xmlns="http://www.w3.org/2000/svg" xmlns:xlink="http://www.w3.org/1999/xlink">
<g id="graph0" class="graph" transform="scale(1 1) rotate(0) translate(4 634)">
<title>T</title>
<polygon fill="white" stroke="transparent" points="-4,4 -4,-634 554,-634 554,4 -4,4"/>
<!-- alice0 -->
<g id="node1" class="node">
<title>alice0</title>
<polygon fill="none" stroke="black" points="54,-342 0,-342 0,-306 54,-306 54,-342"/>
<text text-anchor="middle" x="27" y="-320.3" font-family="Times,serif" font-size="14.00">Alice</text>
</g>
<!-- funding -->
<g id="node17" class="node">
<title>funding</title>
<text text-anchor="middle" x="128" y="-320.3" font-family="Times,serif" font-size="14.00">Funding</text>
</g>
<!-- alice0&#45;&gt;funding -->
<g id="edge1" class="edge">
<title>alice0:e&#45;&gt;funding:w</title>
<path fill="none" stroke="black" d="M54,-324C70,-324 74,-324 90,-324"/>
</g>
<!-- alice1 -->
<g id="node2" class="node">
<title>alice1</title>
<polygon fill="none" stroke="black" points="549.5,-630 495.5,-630 495.5,-594 549.5,-594 549.5,-630"/>
<text text-anchor="middle" x="522.5" y="-608.3" font-family="Times,serif" font-size="14.00">Alice</text>
</g>
<!-- alice2 -->
<g id="node3" class="node">
<title>alice2</title>
<polygon fill="none" stroke="black" points="549.5,-414 495.5,-414 495.5,-378 549.5,-378 549.5,-414"/>
<text text-anchor="middle" x="522.5" y="-392.3" font-family="Times,serif" font-size="14.00">Alice</text>
</g>
<!-- alice3 -->
<g id="node4" class="node">
<title>alice3</title>
<polygon fill="none" stroke="black" points="549.5,-198 495.5,-198 495.5,-162 549.5,-162 549.5,-198"/>
<text text-anchor="middle" x="522.5" y="-176.3" font-family="Times,serif" font-size="14.00">Alice</text>
</g>
<!-- alice4 -->
<g id="node5" class="node">
<title>alice4</title>
<polygon fill="none" stroke="black" points="549.5,-522 495.5,-522 495.5,-486 549.5,-486 549.5,-522"/>
<text text-anchor="middle" x="522.5" y="-500.3" font-family="Times,serif" font-size="14.00">Alice</text>
</g>
<!-- alice5 -->
<g id="node6" class="node">
<title>alice5</title>
<polygon fill="none" stroke="black" points="549.5,-306 495.5,-306 495.5,-270 549.5,-270 549.5,-306"/>
<text text-anchor="middle" x="522.5" y="-284.3" font-family="Times,serif" font-size="14.00">Alice</text>
</g>
<!-- alice6 -->
<g id="node7" class="node">
<title>alice6</title>
<polygon fill="none" stroke="black" points="549.5,-90 495.5,-90 495.5,-54 549.5,-54 549.5,-90"/>
<text text-anchor="middle" x="522.5" y="-68.3" font-family="Times,serif" font-size="14.00">Alice</text>
</g>
<!-- bob1 -->
<g id="node8" class="node">
<title>bob1</title>
<polygon fill="none" stroke="black" points="549.5,-576 495.5,-576 495.5,-540 549.5,-540 549.5,-576"/>
<text text-anchor="middle" x="522.5" y="-554.3" font-family="Times,serif" font-size="14.00">Bob</text>
</g>
<!-- bob2 -->
<g id="node9" class="node">
<title>bob2</title>
<polygon fill="none" stroke="black" points="549.5,-468 495.5,-468 495.5,-432 549.5,-432 549.5,-468"/>
<text text-anchor="middle" x="522.5" y="-446.3" font-family="Times,serif" font-size="14.00">Bob</text>
</g>
<!-- carol1 -->
<g id="node10" class="node">
<title>carol1</title>
<polygon fill="none" stroke="black" points="550,-360 495,-360 495,-324 550,-324 550,-360"/>
<text text-anchor="middle" x="522.5" y="-338.3" font-family="Times,serif" font-size="14.00">Carol</text>
</g>
<!-- carol2 -->
<g id="node11" class="node">
<title>carol2</title>
<polygon fill="none" stroke="black" points="550,-252 495,-252 495,-216 550,-216 550,-252"/>
<text text-anchor="middle" x="522.5" y="-230.3" font-family="Times,serif" font-size="14.00">Carol</text>
</g>
<!-- dan1 -->
<g id="node12" class="node">
<title>dan1</title>
<polygon fill="none" stroke="black" points="549.5,-144 495.5,-144 495.5,-108 549.5,-108 549.5,-144"/>
<text text-anchor="middle" x="522.5" y="-122.3" font-family="Times,serif" font-size="14.00">Dan</text>
</g>
<!-- dan2 -->
<g id="node13" class="node">
<title>dan2</title>
<polygon fill="none" stroke="black" points="549.5,-36 495.5,-36 495.5,0 549.5,0 549.5,-36"/>
<text text-anchor="middle" x="522.5" y="-14.3" font-family="Times,serif" font-size="14.00">Dan</text>
</g>
<!-- alice_bob -->
<g id="node14" class="node">
<title>alice_bob</title>
<polygon fill="none" stroke="black" points="308,-513 207,-513 207,-477 308,-477 308,-513"/>
<text text-anchor="middle" x="257.5" y="-491.3" font-family="Times,serif" font-size="14.00">Alice &amp; Bob</text>
</g>
<!-- commitment_ab -->
<g id="node18" class="node">
<title>commitment_ab</title>
<text text-anchor="middle" x="404" y="-554.3" font-family="Times,serif" font-size="14.00" fill="red">Commitment</text>
</g>
<!-- alice_bob&#45;&gt;commitment_ab -->
<g id="edge5" class="edge">
<title>alice_bob:e&#45;&gt;commitment_ab:w</title>
<path fill="none" stroke="red" stroke-dasharray="1,5" d="M309.5,-495C342.55,-495 315.95,-558 349,-558"/>
</g>
<!-- settlement_ab -->
<g id="node21" class="node">
<title>settlement_ab</title>
<text text-anchor="middle" x="404" y="-473.3" font-family="Times,serif" font-size="14.00">Settlement</text>
</g>
<!-- alice_bob&#45;&gt;settlement_ab -->
<g id="edge14" class="edge">
<title>alice_bob:s&#45;&gt;settlement_ab:w</title>
<path fill="none" stroke="black" d="M257.5,-476C257.5,-432.66 311.66,-477 355,-477"/>
</g>
<!-- alice_carol -->
<g id="node15" class="node">
<title>alice_carol</title>
<polygon fill="none" stroke="black" points="313,-342 202,-342 202,-306 313,-306 313,-342"/>
<text text-anchor="middle" x="257.5" y="-320.3" font-family="Times,serif" font-size="14.00">Alice &amp; Carol</text>
</g>
<!-- commitment_ac -->
<g id="node19" class="node">
<title>commitment_ac</title>
<text text-anchor="middle" x="404" y="-338.3" font-family="Times,serif" font-size="14.00" fill="red">Commitment</text>
</g>
<!-- alice_carol&#45;&gt;commitment_ac -->
<g id="edge8" class="edge">
<title>alice_carol:e&#45;&gt;commitment_ac:w</title>
<path fill="none" stroke="red" stroke-dasharray="1,5" d="M313,-324C330.89,-324 331.11,-342 349,-342"/>
</g>
<!-- settlement_ac -->
<g id="node22" class="node">
<title>settlement_ac</title>
<text text-anchor="middle" x="404" y="-284.3" font-family="Times,serif" font-size="14.00">Settlement</text>
</g>
<!-- alice_carol&#45;&gt;settlement_ac -->
<g id="edge17" class="edge">
<title>alice_carol:s&#45;&gt;settlement_ac:w</title>
<path fill="none" stroke="black" d="M257.5,-305C257.5,-261.01 311.01,-288 355,-288"/>
</g>
<!-- alice_dan -->
<g id="node16" class="node">
<title>alice_dan</title>
<polygon fill="none" stroke="black" points="308,-171 207,-171 207,-135 308,-135 308,-171"/>
<text text-anchor="middle" x="257.5" y="-149.3" font-family="Times,serif" font-size="14.00">Alice &amp; Dan</text>
</g>
<!-- commitment_ad -->
<g id="node20" class="node">
<title>commitment_ad</title>
<text text-anchor="middle" x="404" y="-149.3" font-family="Times,serif" font-size="14.00" fill="red">Commitment</text>
</g>
<!-- alice_dan&#45;&gt;commitment_ad -->
<g id="edge11" class="edge">
<title>alice_dan:e&#45;&gt;commitment_ad:w</title>
<path fill="none" stroke="red" stroke-dasharray="1,5" d="M309.5,-153C327.06,-153 331.44,-153 349,-153"/>
</g>
<!-- settlement_ad -->
<g id="node23" class="node">
<title>settlement_ad</title>
<text text-anchor="middle" x="404" y="-68.3" font-family="Times,serif" font-size="14.00">Settlement</text>
</g>
<!-- alice_dan&#45;&gt;settlement_ad -->
<g id="edge20" class="edge">
<title>alice_dan:s&#45;&gt;settlement_ad:w</title>
<path fill="none" stroke="black" d="M257.5,-134C257.5,-82.65 303.65,-72 355,-72"/>
</g>
<!-- funding&#45;&gt;alice_bob -->
<g id="edge2" class="edge">
<title>funding:e&#45;&gt;alice_bob:w</title>
<path fill="none" stroke="black" d="M166,-324C240.19,-324 138.41,-478.71 195.42,-493.82"/>
<polygon fill="black" stroke="black" points="195.16,-497.31 205.5,-495 195.98,-490.36 195.16,-497.31"/>
</g>
<!-- funding&#45;&gt;alice_carol -->
<g id="edge3" class="edge">
<title>funding:e&#45;&gt;alice_carol:w</title>
<path fill="none" stroke="black" d="M166,-324C178,-324 183.25,-324 191.88,-324"/>
<polygon fill="black" stroke="black" points="192,-327.5 202,-324 192,-320.5 192,-327.5"/>
</g>
<!-- funding&#45;&gt;alice_dan -->
<g id="edge4" class="edge">
<title>funding:e&#45;&gt;alice_dan:w</title>
<path fill="none" stroke="black" d="M166,-324C240.19,-324 138.41,-169.29 195.42,-154.18"/>
<polygon fill="black" stroke="black" points="195.98,-157.64 205.5,-153 195.16,-150.69 195.98,-157.64"/>
</g>
<!-- commitment_ab&#45;&gt;alice1 -->
<g id="edge6" class="edge">
<title>commitment_ab:e&#45;&gt;alice1:w</title>
<path fill="none" stroke="red" stroke-dasharray="1,5" d="M459,-558C483.56,-558 471.48,-597.16 485.16,-608.78"/>
<polygon fill="red" stroke="red" points="484.41,-612.22 495,-612 486.58,-605.57 484.41,-612.22"/>
</g>
<!-- commitment_ab&#45;&gt;bob1 -->
<g id="edge7" class="edge">
<title>commitment_ab:e&#45;&gt;bob1:w</title>
<path fill="none" stroke="red" stroke-dasharray="1,5" d="M459,-558C471,-558 476.25,-558 484.88,-558"/>
<polygon fill="red" stroke="red" points="485,-561.5 495,-558 485,-554.5 485,-561.5"/>
</g>
<!-- commitment_ac&#45;&gt;alice2 -->
<g id="edge9" class="edge">
<title>commitment_ac:e&#45;&gt;alice2:w</title>
<path fill="none" stroke="red" stroke-dasharray="1,5" d="M459,-342C483.56,-342 471.48,-381.16 485.16,-392.78"/>
<polygon fill="red" stroke="red" points="484.41,-396.22 495,-396 486.58,-389.57 484.41,-396.22"/>
</g>
<!-- commitment_ac&#45;&gt;carol1 -->
<g id="edge10" class="edge">
<title>commitment_ac:e&#45;&gt;carol1:w</title>
<path fill="none" stroke="red" stroke-dasharray="1,5" d="M459,-342C471,-342 476.25,-342 484.88,-342"/>
<polygon fill="red" stroke="red" points="485,-345.5 495,-342 485,-338.5 485,-345.5"/>
</g>
<!-- commitment_ad&#45;&gt;alice3 -->
<g id="edge12" class="edge">
<title>commitment_ad:e&#45;&gt;alice3:w</title>
<path fill="none" stroke="red" stroke-dasharray="1,5" d="M459,-153C474.94,-153 475.63,-170.15 485.38,-177.11"/>
<polygon fill="red" stroke="red" points="484.42,-180.48 495,-180 486.43,-173.77 484.42,-180.48"/>
</g>
<!-- commitment_ad&#45;&gt;dan1 -->
<g id="edge13" class="edge">
<title>commitment_ad:e&#45;&gt;dan1:w</title>
<path fill="none" stroke="red" stroke-dasharray="1,5" d="M459,-153C474.94,-153 475.63,-135.85 485.38,-128.89"/>
<polygon fill="red" stroke="red" points="486.43,-132.23 495,-126 484.42,-125.52 486.43,-132.23"/>
</g>
<!-- settlement_ab&#45;&gt;alice4 -->
<g id="edge15" class="edge">
<title>settlement_ab:e&#45;&gt;alice4:w</title>
<path fill="none" stroke="black" d="M453,-477C471.2,-477 472.87,-495.17 485.13,-501.7"/>
<polygon fill="black" stroke="black" points="484.47,-505.14 495,-504 486.06,-498.32 484.47,-505.14"/>
</g>
<!-- settlement_ab&#45;&gt;bob2 -->
<g id="edge16" class="edge">
<title>settlement_ab:e&#45;&gt;bob2:w</title>
<path fill="none" stroke="black" d="M453,-477C471.2,-477 472.87,-458.83 485.13,-452.3"/>
<polygon fill="black" stroke="black" points="486.06,-455.68 495,-450 484.47,-448.86 486.06,-455.68"/>
</g>
<!-- settlement_ac&#45;&gt;alice5 -->
<g id="edge18" class="edge">
<title>settlement_ac:e&#45;&gt;alice5:w</title>
<path fill="none" stroke="black" d="M453,-288C467.73,-288 473.74,-288 484.79,-288"/>
<polygon fill="black" stroke="black" points="485,-291.5 495,-288 485,-284.5 485,-291.5"/>
</g>
<!-- settlement_ac&#45;&gt;carol2 -->
<g id="edge19" class="edge">
<title>settlement_ac:e&#45;&gt;carol2:w</title>
<path fill="none" stroke="black" d="M453,-288C479.37,-288 468.72,-247.39 485.26,-236.6"/>
<polygon fill="black" stroke="black" points="486.24,-239.96 495,-234 484.44,-233.2 486.24,-239.96"/>
</g>
<!-- settlement_ad&#45;&gt;alice6 -->
<g id="edge21" class="edge">
<title>settlement_ad:e&#45;&gt;alice6:w</title>
<path fill="none" stroke="black" d="M453,-72C467.73,-72 473.74,-72 484.79,-72"/>
<polygon fill="black" stroke="black" points="485,-75.5 495,-72 485,-68.5 485,-75.5"/>
</g>
<!-- settlement_ad&#45;&gt;dan2 -->
<g id="edge22" class="edge">
<title>settlement_ad:e&#45;&gt;dan2:w</title>
<path fill="none" stroke="black" d="M453,-72C479.37,-72 468.72,-31.39 485.26,-20.6"/>
<polygon fill="black" stroke="black" points="486.24,-23.96 495,-18 484.44,-17.2 486.24,-23.96"/>
</g>
</g>
</svg>
