<?xml version="1.0" encoding="UTF-8" standalone="no"?>
<!DOCTYPE svg PUBLIC "-//W3C//DTD SVG 1.1//EN"
 "http://www.w3.org/Graphics/SVG/1.1/DTD/svg11.dtd">
<!-- Generated by graphviz version 2.43.0 (0)
 -->
<!-- Title: T Pages: 1 -->
<svg width="866pt" height="395pt"
 viewBox="0.00 0.00 866.00 395.00" xmlns="http://www.w3.org/2000/svg" xmlns:xlink="http://www.w3.org/1999/xlink">
<g id="graph0" class="graph" transform="scale(1 1) rotate(0) translate(4 391)">
<title>T</title>
<polygon fill="white" stroke="transparent" points="-4,4 -4,-391 862,-391 862,4 -4,4"/>
<!-- alice0 -->
<g id="node1" class="node">
<title>alice0</title>
<polygon fill="none" stroke="black" points="54.5,-207 0.5,-207 0.5,-171 54.5,-171 54.5,-207"/>
<text text-anchor="middle" x="27.5" y="-185.3" font-family="Times,serif" font-size="14.00">Alice</text>
</g>
<!-- hook -->
<g id="node17" class="node">
<title>hook</title>
<text text-anchor="middle" x="118" y="-131.3" font-family="Times,serif" font-size="14.00">Hook</text>
</g>
<!-- alice0&#45;&gt;hook -->
<g id="edge1" class="edge">
<title>alice0:e&#45;&gt;hook:w</title>
<path fill="none" stroke="black" d="M55,-189C83.84,-189 62.16,-135 91,-135"/>
</g>
<!-- alice1 -->
<g id="node2" class="node">
<title>alice1</title>
<polygon fill="none" stroke="black" points="857.5,-387 803.5,-387 803.5,-351 857.5,-351 857.5,-387"/>
<text text-anchor="middle" x="830.5" y="-365.3" font-family="Times,serif" font-size="14.00">Alice</text>
</g>
<!-- alice2 -->
<g id="node3" class="node">
<title>alice2</title>
<polygon fill="none" stroke="black" points="857.5,-279 803.5,-279 803.5,-243 857.5,-243 857.5,-279"/>
<text text-anchor="middle" x="830.5" y="-257.3" font-family="Times,serif" font-size="14.00">Alice</text>
</g>
<!-- alice3 -->
<g id="node4" class="node">
<title>alice3</title>
<polygon fill="none" stroke="black" points="592.5,-144 538.5,-144 538.5,-108 592.5,-108 592.5,-144"/>
<text text-anchor="middle" x="565.5" y="-122.3" font-family="Times,serif" font-size="14.00">Alice</text>
</g>
<!-- bob0 -->
<g id="node5" class="node">
<title>bob0</title>
<polygon fill="none" stroke="black" points="54.5,-153 0.5,-153 0.5,-117 54.5,-117 54.5,-153"/>
<text text-anchor="middle" x="27.5" y="-131.3" font-family="Times,serif" font-size="14.00">Bob</text>
</g>
<!-- bob0&#45;&gt;hook -->
<g id="edge2" class="edge">
<title>bob0:e&#45;&gt;hook:w</title>
<path fill="none" stroke="black" d="M55,-135C71,-135 75,-135 91,-135"/>
</g>
<!-- bob1 -->
<g id="node6" class="node">
<title>bob1</title>
<polygon fill="none" stroke="black" points="857.5,-333 803.5,-333 803.5,-297 857.5,-297 857.5,-333"/>
<text text-anchor="middle" x="830.5" y="-311.3" font-family="Times,serif" font-size="14.00">Bob</text>
</g>
<!-- bob2 -->
<g id="node7" class="node">
<title>bob2</title>
<polygon fill="none" stroke="black" points="857.5,-171 803.5,-171 803.5,-135 857.5,-135 857.5,-171"/>
<text text-anchor="middle" x="830.5" y="-149.3" font-family="Times,serif" font-size="14.00">Bob</text>
</g>
<!-- bob3 -->
<g id="node8" class="node">
<title>bob3</title>
<polygon fill="none" stroke="black" points="592.5,-90 538.5,-90 538.5,-54 592.5,-54 592.5,-90"/>
<text text-anchor="middle" x="565.5" y="-68.3" font-family="Times,serif" font-size="14.00">Bob</text>
</g>
<!-- carol0 -->
<g id="node9" class="node">
<title>carol0</title>
<polygon fill="none" stroke="black" points="55,-99 0,-99 0,-63 55,-63 55,-99"/>
<text text-anchor="middle" x="27.5" y="-77.3" font-family="Times,serif" font-size="14.00">Carol</text>
</g>
<!-- carol0&#45;&gt;hook -->
<g id="edge3" class="edge">
<title>carol0:e&#45;&gt;hook:w</title>
<path fill="none" stroke="black" d="M55,-81C83.84,-81 62.16,-135 91,-135"/>
</g>
<!-- carol1 -->
<g id="node10" class="node">
<title>carol1</title>
<polygon fill="none" stroke="black" points="858,-225 803,-225 803,-189 858,-189 858,-225"/>
<text text-anchor="middle" x="830.5" y="-203.3" font-family="Times,serif" font-size="14.00">Carol</text>
</g>
<!-- carol2 -->
<g id="node11" class="node">
<title>carol2</title>
<polygon fill="none" stroke="black" points="858,-117 803,-117 803,-81 858,-81 858,-117"/>
<text text-anchor="middle" x="830.5" y="-95.3" font-family="Times,serif" font-size="14.00">Carol</text>
</g>
<!-- carol3 -->
<g id="node12" class="node">
<title>carol3</title>
<polygon fill="none" stroke="black" points="593,-36 538,-36 538,0 593,0 593,-36"/>
<text text-anchor="middle" x="565.5" y="-14.3" font-family="Times,serif" font-size="14.00">Carol</text>
</g>
<!-- alice_bob_carol -->
<g id="node13" class="node">
<title>alice_bob_carol</title>
<polygon fill="none" stroke="black" points="342,-153 181,-153 181,-117 342,-117 342,-153"/>
<text text-anchor="middle" x="261.5" y="-131.3" font-family="Times,serif" font-size="14.00">Alice &amp; Bob &amp; Carol</text>
</g>
<!-- allocation -->
<g id="node18" class="node">
<title>allocation</title>
<text text-anchor="middle" x="426" y="-203.3" font-family="Times,serif" font-size="14.00">Allocation</text>
</g>
<!-- alice_bob_carol&#45;&gt;allocation -->
<g id="edge5" class="edge">
<title>alice_bob_carol:e&#45;&gt;allocation:w</title>
<path fill="none" stroke="black" stroke-dasharray="1,5" d="M342,-135C378.39,-135 344.61,-207 381,-207"/>
</g>
<!-- settlement -->
<g id="node22" class="node">
<title>settlement</title>
<text text-anchor="middle" x="426" y="-95.3" font-family="Times,serif" font-size="14.00">Settlement</text>
</g>
<!-- alice_bob_carol&#45;&gt;settlement -->
<g id="edge18" class="edge">
<title>alice_bob_carol:s&#45;&gt;settlement:w</title>
<path fill="none" stroke="black" d="M261.5,-116C261.5,-63.67 325.67,-99 378,-99"/>
</g>
<!-- alice_bob -->
<g id="node14" class="node">
<title>alice_bob</title>
<polygon fill="none" stroke="black" points="616,-320 515,-320 515,-284 616,-284 616,-320"/>
<text text-anchor="middle" x="565.5" y="-298.3" font-family="Times,serif" font-size="14.00">Alice &amp; Bob</text>
</g>
<!-- commitment_ab -->
<g id="node19" class="node">
<title>commitment_ab</title>
<text text-anchor="middle" x="712" y="-311.3" font-family="Times,serif" font-size="14.00" fill="red">Commitment</text>
</g>
<!-- alice_bob&#45;&gt;commitment_ab -->
<g id="edge9" class="edge">
<title>alice_bob:e&#45;&gt;commitment_ab:w</title>
<path fill="none" stroke="red" stroke-dasharray="1,5" d="M617.5,-302C635.98,-302 638.52,-315 657,-315"/>
</g>
<!-- alice_carol -->
<g id="node15" class="node">
<title>alice_carol</title>
<polygon fill="none" stroke="black" points="621,-252 510,-252 510,-216 621,-216 621,-252"/>
<text text-anchor="middle" x="565.5" y="-230.3" font-family="Times,serif" font-size="14.00">Alice &amp; Carol</text>
</g>
<!-- commitment_ac -->
<g id="node20" class="node">
<title>commitment_ac</title>
<text text-anchor="middle" x="712" y="-230.3" font-family="Times,serif" font-size="14.00" fill="red">Commitment</text>
</g>
<!-- alice_carol&#45;&gt;commitment_ac -->
<g id="edge12" class="edge">
<title>alice_carol:e&#45;&gt;commitment_ac:w</title>
<path fill="none" stroke="red" stroke-dasharray="1,5" d="M621,-234C637,-234 641,-234 657,-234"/>
</g>
<!-- bob_carol -->
<g id="node16" class="node">
<title>bob_carol</title>
<polygon fill="none" stroke="black" points="617.5,-198 513.5,-198 513.5,-162 617.5,-162 617.5,-198"/>
<text text-anchor="middle" x="565.5" y="-176.3" font-family="Times,serif" font-size="14.00">Bob &amp; Carol</text>
</g>
<!-- commitment_bc -->
<g id="node21" class="node">
<title>commitment_bc</title>
<text text-anchor="middle" x="712" y="-149.3" font-family="Times,serif" font-size="14.00" fill="red">Commitment</text>
</g>
<!-- bob_carol&#45;&gt;commitment_bc -->
<g id="edge15" class="edge">
<title>bob_carol:e&#45;&gt;commitment_bc:w</title>
<path fill="none" stroke="red" stroke-dasharray="1,5" d="M618.5,-180C639.4,-180 636.1,-153 657,-153"/>
</g>
<!-- hook&#45;&gt;alice_bob_carol -->
<g id="edge4" class="edge">
<title>hook:e&#45;&gt;alice_bob_carol:w</title>
<path fill="none" stroke="black" d="M145,-135C157,-135 162.25,-135 170.88,-135"/>
<polygon fill="black" stroke="black" points="171,-138.5 181,-135 171,-131.5 171,-138.5"/>
</g>
<!-- allocation&#45;&gt;alice_bob -->
<g id="edge6" class="edge">
<title>allocation:e&#45;&gt;alice_bob:w</title>
<path fill="none" stroke="black" stroke-dasharray="1,5" d="M471,-207C513.28,-207 475.13,-286.37 503.59,-300.02"/>
<polygon fill="black" stroke="black" points="503.01,-303.47 513.5,-302 504.38,-296.61 503.01,-303.47"/>
</g>
<!-- allocation&#45;&gt;alice_carol -->
<g id="edge7" class="edge">
<title>allocation:e&#45;&gt;alice_carol:w</title>
<path fill="none" stroke="black" stroke-dasharray="1,5" d="M471,-207C487.96,-207 489.23,-224.48 500.06,-231.31"/>
<polygon fill="black" stroke="black" points="499.43,-234.77 510,-234 501.26,-228.01 499.43,-234.77"/>
</g>
<!-- allocation&#45;&gt;bob_carol -->
<g id="edge8" class="edge">
<title>allocation:e&#45;&gt;bob_carol:w</title>
<path fill="none" stroke="black" stroke-dasharray="1,5" d="M471,-207C489.05,-207 490.61,-188.83 502.73,-182.3"/>
<polygon fill="black" stroke="black" points="503.57,-185.7 512.5,-180 501.96,-178.89 503.57,-185.7"/>
</g>
<!-- commitment_ab&#45;&gt;alice1 -->
<g id="edge10" class="edge">
<title>commitment_ab:e&#45;&gt;alice1:w</title>
<path fill="none" stroke="red" stroke-dasharray="1,5" d="M767,-315C791.56,-315 779.48,-354.16 793.16,-365.78"/>
<polygon fill="red" stroke="red" points="792.41,-369.22 803,-369 794.58,-362.57 792.41,-369.22"/>
</g>
<!-- commitment_ab&#45;&gt;bob1 -->
<g id="edge11" class="edge">
<title>commitment_ab:e&#45;&gt;bob1:w</title>
<path fill="none" stroke="red" stroke-dasharray="1,5" d="M767,-315C779,-315 784.25,-315 792.88,-315"/>
<polygon fill="red" stroke="red" points="793,-318.5 803,-315 793,-311.5 793,-318.5"/>
</g>
<!-- commitment_ac&#45;&gt;alice2 -->
<g id="edge13" class="edge">
<title>commitment_ac:e&#45;&gt;alice2:w</title>
<path fill="none" stroke="red" stroke-dasharray="1,5" d="M767,-234C782.94,-234 783.63,-251.15 793.38,-258.11"/>
<polygon fill="red" stroke="red" points="792.42,-261.48 803,-261 794.43,-254.77 792.42,-261.48"/>
</g>
<!-- commitment_ac&#45;&gt;carol1 -->
<g id="edge14" class="edge">
<title>commitment_ac:e&#45;&gt;carol1:w</title>
<path fill="none" stroke="red" stroke-dasharray="1,5" d="M767,-234C782.94,-234 783.63,-216.85 793.38,-209.89"/>
<polygon fill="red" stroke="red" points="794.43,-213.23 803,-207 792.42,-206.52 794.43,-213.23"/>
</g>
<!-- commitment_bc&#45;&gt;bob2 -->
<g id="edge16" class="edge">
<title>commitment_bc:e&#45;&gt;bob2:w</title>
<path fill="none" stroke="red" stroke-dasharray="1,5" d="M767,-153C779,-153 784.25,-153 792.88,-153"/>
<polygon fill="red" stroke="red" points="793,-156.5 803,-153 793,-149.5 793,-156.5"/>
</g>
<!-- commitment_bc&#45;&gt;carol2 -->
<g id="edge17" class="edge">
<title>commitment_bc:e&#45;&gt;carol2:w</title>
<path fill="none" stroke="red" stroke-dasharray="1,5" d="M767,-153C791.56,-153 779.48,-113.84 793.16,-102.22"/>
<polygon fill="red" stroke="red" points="794.58,-105.43 803,-99 792.41,-98.78 794.58,-105.43"/>
</g>
<!-- settlement&#45;&gt;alice3 -->
<g id="edge19" class="edge">
<title>settlement:e&#45;&gt;alice3:w</title>
<path fill="none" stroke="black" d="M474,-99C500.95,-99 505.89,-119.86 527.51,-124.91"/>
<polygon fill="black" stroke="black" points="527.18,-128.39 537.5,-126 527.94,-121.43 527.18,-128.39"/>
</g>
<!-- settlement&#45;&gt;bob3 -->
<g id="edge20" class="edge">
<title>settlement:e&#45;&gt;bob3:w</title>
<path fill="none" stroke="black" d="M474,-99C500.95,-99 505.89,-78.14 527.51,-73.09"/>
<polygon fill="black" stroke="black" points="527.94,-76.57 537.5,-72 527.18,-69.61 527.94,-76.57"/>
</g>
<!-- settlement&#45;&gt;carol3 -->
<g id="edge21" class="edge">
<title>settlement:e&#45;&gt;carol3:w</title>
<path fill="none" stroke="black" d="M474,-99C515.56,-99 495.37,-31.32 526.32,-19.69"/>
<polygon fill="black" stroke="black" points="527.21,-23.09 536.5,-18 526.06,-16.19 527.21,-23.09"/>
</g>
</g>
</svg>
